<svg width="76" height="55" fill="none" xmlns="http://www.w3.org/2000/svg"><g clip-path="url(#a)"><path d="M0 0h2.32v32.767h6.93V0h2.322v55H9.25V35.526H2.32V55H0V0z" fill="url(#b)"/><path d="M28.733 0 22.98 35.526V55h-2.321V35.526L14.873 0h2.125l4.838 29.618L26.64 0h2.092z" fill="url(#c)"/><path d="M38.997 55h-6.963V0h6.93c2.583 0 4.61 2.449 4.61 5.48v44c.032 2.994-2.027 5.52-4.577 5.52zM34.355 2.76v49.48h4.61c1.241 0 2.32-1.244 2.32-2.76v-44c0-1.476-1.046-2.76-2.32-2.76h-4.61v.04z" fill="url(#d)"/><path d="M58.806 55H56.42l-4.086-19.474h-2.779V55h-2.32V0h6.93c2.582 0 4.608 2.449 4.608 5.48v24.527c0 2.76-1.798 5.092-4.086 5.403L58.806 55zm-9.25-22.233h4.608c1.242 0 2.321-1.244 2.321-2.76V5.481c0-1.477-1.046-2.76-2.32-2.76h-4.61v30.046z" fill="url(#e)"/><path d="M65.801 35.526 64.2 55h-2.092L66.75 0h4.61l4.608 55h-2.092l-1.602-19.474h-6.472zM69.495 2.76h-.915l-2.517 30.007h5.949L69.495 2.76z" fill="url(#f)"/></g><defs><linearGradient id="b" x1="5.786" y1="0" x2="5.786" y2="55" gradientUnits="userSpaceOnUse"><stop stop-color="#C0B7E8"/><stop offset="1" stop-color="#8176AF"/></linearGradient><linearGradient id="c" x1="21.803" y1="0" x2="21.803" y2="55" gradientUnits="userSpaceOnUse"><stop stop-color="#C0B7E8"/><stop offset="1" stop-color="#8176AF"/></linearGradient><linearGradient id="d" x1="37.804" y1="0" x2="37.804" y2="55" gradientUnits="userSpaceOnUse"><stop stop-color="#C0B7E8"/><stop offset="1" stop-color="#8176AF"/></linearGradient><linearGradient id="e" x1="53.02" y1="0" x2="53.02" y2="55" gradientUnits="userSpaceOnUse"><stop stop-color="#C0B7E8"/><stop offset="1" stop-color="#8176AF"/></linearGradient><linearGradient id="f" x1="69.037" y1="0" x2="69.037" y2="55" gradientUnits="userSpaceOnUse"><stop stop-color="#C0B7E8"/><stop offset="1" stop-color="#8176AF"/></linearGradient><clipPath id="a"><path fill="#fff" d="M0 0h76v55H0z"/></clipPath></defs></svg>