<svg width="114" height="138" fill="none" xmlns="http://www.w3.org/2000/svg"><g clip-path="url(#a)" filter="url(#b)"><path d="M106.773 48.868c1.335 9.142-6.86 6.707-6.86 6.707-3.43-11.448-8.919-10.38-8.919-10.38 4.297 3.716 4.622 6.877 4.622 6.877-11.446-9.611-27.008-1.88-32.93 1.752C59.367 48.27 52.65 35.84 55.033 30.2c3.142-7.39 9.532-3.161 9.532-3.161 12.926-.256 12.204-5.724 12.204-5.724-3.43 3.161-13.54 0-13.54 0 8.774 0 12.493-4.23 12.493-4.23-6.535 1.923-13.829-6.321-13.829-6.321-2.671-16.19-15.02-9.313-15.02-9.313C54.6-.128 52.541 9.57 52.541 9.57c-9.676 4.058-8.774 10.55-8.774 10.55 3.141-5.082 5.813-5.467 5.813-5.467-8.846 14.737-.325 35.242 2.203 40.581-4.622 3.802-15.454 12.175-20.328 9.27-6.246-3.717-2.672-11.277-2.672-11.277-.144-15.293-4.766-14.439-4.766-14.439 2.672 4.058 0 16.02 0 16.02 0-10.381-3.574-14.781-3.574-14.781 1.624 7.732-5.344 16.36-5.344 16.36-13.684 3.162-7.871 17.77-7.871 17.77-1.336-9.14 6.86-6.706 6.86-6.706 3.43 11.448 8.918 10.38 8.918 10.38-4.297-3.716-4.621-6.877-4.621-6.877 12.095 10.167 28.812.94 33.867-2.307 3.394 5.767 9.713 17.643 7.366 23.153-3.141 7.39-9.532 3.161-9.532 3.161-12.926.171-12.204 5.639-12.204 5.639 3.43-3.161 13.54 0 13.54 0-8.774 0-12.493 4.229-12.493 4.229 6.535-1.922 13.829 6.322 13.829 6.322 2.671 16.19 15.02 9.312 15.02 9.312-7.727 1.581-5.669-8.116-5.669-8.116 9.677-4.058 8.774-10.551 8.774-10.551-3.141 5.083-5.813 5.468-5.813 5.468 8.665-14.396.686-34.345-2.022-40.197 4.91-4.058 14.84-11.32 19.425-8.586 6.246 3.716 2.672 11.277 2.672 11.277.144 15.293 4.766 14.438 4.766 14.438-2.672-4.058 0-16.018 0-16.018 0 10.38 3.575 14.78 3.575 14.78-1.625-7.732 5.343-16.361 5.343-16.361 13.757-3.118 7.944-17.728 7.944-17.728z" fill="url(#c)"/></g><defs><linearGradient id="c" x1="56.997" y1=".001" x2="56.997" y2="121.913" gradientUnits="userSpaceOnUse"><stop stop-color="#C0B7E8"/><stop offset="1" stop-color="#8176AF"/></linearGradient><clipPath id="a"><path fill="#fff" transform="translate(6)" d="M0 0h102v122H0z"/></clipPath><filter id="b" x="0" y="0" width="114" height="138" filterUnits="userSpaceOnUse" color-interpolation-filters="sRGB"><feFlood flood-opacity="0" result="BackgroundImageFix"/><feColorMatrix in="SourceAlpha" values="0 0 0 0 0 0 0 0 0 0 0 0 0 0 0 0 0 0 127 0" result="hardAlpha"/><feOffset dy="10"/><feGaussianBlur stdDeviation="3"/><feComposite in2="hardAlpha" operator="out"/><feColorMatrix values="0 0 0 0 0 0 0 0 0 0 0 0 0 0 0 0 0 0 0.25 0"/><feBlend in2="BackgroundImageFix" result="effect1_dropShadow_16_176"/><feBlend in="SourceGraphic" in2="effect1_dropShadow_16_176" result="shape"/></filter></defs></svg>