<svg width="32" height="33" fill="none" xmlns="http://www.w3.org/2000/svg"><path d="m18.6 16.5-4.2-2.4v4.8l4.2-2.4z" fill="#C0B7E8"/><path fill-rule="evenodd" clip-rule="evenodd" d="M0 16.5C0 7.663 7.163.5 16 .5s16 7.163 16 16-7.163 16-16 16-16-7.163-16-16zm22.2-5.3c.7.2 1.2.7 1.4 1.4.4 1.3.4 3.9.4 3.9s0 2.6-.3 3.9c-.2.7-.7 1.2-1.4 1.4-1.3.3-6.3.3-6.3.3s-5.1 0-6.3-.3c-.7-.2-1.2-.7-1.4-1.4-.3-1.3-.3-3.9-.3-3.9s0-2.6.2-3.9c.2-.7.7-1.2 1.4-1.4 1.3-.3 6.3-.3 6.3-.3s5.1 0 6.3.3z" fill="#C0B7E8"/></svg>