<svg width="76" height="55" viewBox="0 0 76 55" fill="none" xmlns="http://www.w3.org/2000/svg">
<g clip-path="url(#clip0_16_178)">
<path d="M0 0H2.32086V32.7668H9.25075V0H11.5716V55H9.25075V35.5265H2.32086V55H0V0Z" fill="url(#paint0_linear_16_178)"/>
<path d="M28.7328 0L22.9797 35.5265V55H20.6589V35.5265L14.873 0H16.9978L21.8356 29.6184L26.6408 0H28.7328Z" fill="url(#paint1_linear_16_178)"/>
<path d="M38.997 55H32.0344V0H38.9643C41.5467 0 43.5733 2.44876 43.5733 5.48057V49.4806C43.606 52.4735 41.5467 55 38.997 55ZM34.3553 2.75972V52.2403H38.9643C40.2065 52.2403 41.2852 50.9965 41.2852 49.4806V5.48057C41.2852 4.00353 40.2392 2.72085 38.9643 2.72085H34.3553V2.75972Z" fill="url(#paint2_linear_16_178)"/>
<path d="M58.806 55H56.4198L52.3337 35.5265H49.5552V55H47.2344V0H54.1643C56.7466 0 58.7733 2.44876 58.7733 5.48057V30.0071C58.7733 32.7668 56.9755 35.0989 54.6873 35.4099L58.806 55ZM49.5552 32.7668H54.1643C55.4064 32.7668 56.4851 31.523 56.4851 30.0071V5.48057C56.4851 4.00353 55.4391 2.72085 54.1643 2.72085H49.5552V32.7668Z" fill="url(#paint3_linear_16_178)"/>
<path d="M65.8012 35.5265L64.1995 55H62.1074L66.7491 0H71.3582L75.9672 55H73.8752L72.2734 35.5265H65.8012ZM69.495 2.75972H68.5797L66.0627 32.7668H72.0119L69.495 2.75972Z" fill="url(#paint4_linear_16_178)"/>
</g>
<defs>
<linearGradient id="paint0_linear_16_178" x1="5.78581" y1="0" x2="5.78581" y2="55" gradientUnits="userSpaceOnUse">
<stop stop-color="#C0B7E8"/>
<stop offset="1" stop-color="#8176AF"/>
</linearGradient>
<linearGradient id="paint1_linear_16_178" x1="21.8029" y1="0" x2="21.8029" y2="55" gradientUnits="userSpaceOnUse">
<stop stop-color="#C0B7E8"/>
<stop offset="1" stop-color="#8176AF"/>
</linearGradient>
<linearGradient id="paint2_linear_16_178" x1="37.8041" y1="0" x2="37.8041" y2="55" gradientUnits="userSpaceOnUse">
<stop stop-color="#C0B7E8"/>
<stop offset="1" stop-color="#8176AF"/>
</linearGradient>
<linearGradient id="paint3_linear_16_178" x1="53.0202" y1="0" x2="53.0202" y2="55" gradientUnits="userSpaceOnUse">
<stop stop-color="#C0B7E8"/>
<stop offset="1" stop-color="#8176AF"/>
</linearGradient>
<linearGradient id="paint4_linear_16_178" x1="69.0373" y1="0" x2="69.0373" y2="55" gradientUnits="userSpaceOnUse">
<stop stop-color="#C0B7E8"/>
<stop offset="1" stop-color="#8176AF"/>
</linearGradient>
<clipPath id="clip0_16_178">
<rect width="76" height="55" fill="white"/>
</clipPath>
</defs>
</svg>
